<svg height="200px" width="200px" version="1.1" id="Layer_1" xmlns="http://www.w3.org/2000/svg" xmlns:xlink="http://www.w3.org/1999/xlink" viewBox="0 0 512.213 512.213" xml:space="preserve" fill="#000000" data-darkreader-inline-fill="" style="--darkreader-inline-fill: #000000;"><g id="SVGRepo_bgCarrier" stroke-width="0"></g><g id="SVGRepo_tracerCarrier" stroke-linecap="round" stroke-linejoin="round"></g><g id="SVGRepo_iconCarrier"> <g transform="translate(1)"> <path style="fill: rgb(255, 168, 0); --darkreader-inline-fill: #ffb11a;" d="M246.573,290.347V222.08h8.533v-34.133h-85.333v34.133h8.533v68.267h-8.533v85.333 c0,23.893,18.773,42.667,42.667,42.667s42.667-18.773,42.667-42.667v-85.333H246.573z" data-darkreader-inline-fill=""></path> <path style="fill: rgb(255, 225, 0); --darkreader-inline-fill: #ffe41a;" d="M169.773,290.347v85.333c0,23.893,13.653,42.667,29.867,42.667s29.867-18.773,29.867-42.667v-85.333 V222.08v-34.133h-59.733V290.347z" data-darkreader-inline-fill=""></path> <path style="fill: rgb(61, 185, 249); --darkreader-inline-fill: #46bcf9;" d="M169.773,333.013v42.667c0,23.893,18.773,42.667,42.667,42.667s42.667-18.773,42.667-42.667v-42.667 H169.773z" data-darkreader-inline-fill=""></path> <path style="fill: rgb(99, 211, 253); --darkreader-inline-fill: #5fd2fd;" d="M169.773,333.013v42.667c0,23.893,13.653,42.667,29.867,42.667s29.867-18.773,29.867-42.667v-42.667 H169.773z" data-darkreader-inline-fill=""></path> <polygon style="fill: rgb(255, 225, 0); --darkreader-inline-fill: #ffe41a;" points="476.973,503.68 301.187,503.68 285.827,486.613 232.067,486.613 216.707,503.68 33.24,503.68 33.24,452.48 476.973,452.48 " data-darkreader-inline-fill=""></polygon> <polygon style="fill: rgb(255, 255, 255); --darkreader-inline-fill: #e8e6e3;" points="7.64,503.68 33.24,503.68 33.24,452.48 7.64,452.48 " data-darkreader-inline-fill=""></polygon> <polygon style="fill: rgb(255, 168, 0); --darkreader-inline-fill: #ffb11a;" points="476.973,503.68 502.573,503.68 502.573,452.48 476.973,452.48 " data-darkreader-inline-fill=""></polygon> <polygon style="fill: rgb(253, 204, 0); --darkreader-inline-fill: #ffd31b;" points="33.24,222.08 50.307,222.08 50.307,187.947 33.24,187.947 " data-darkreader-inline-fill=""></polygon> <polygon style="fill: rgb(255, 255, 255); --darkreader-inline-fill: #e8e6e3;" points="16.173,222.08 33.24,222.08 33.24,187.947 16.173,187.947 " data-darkreader-inline-fill=""></polygon> <polygon style="fill: rgb(253, 204, 0); --darkreader-inline-fill: #ffd31b;" points="33.24,452.48 50.307,452.48 50.307,290.347 33.24,290.347 " data-darkreader-inline-fill=""></polygon> <polygon style="fill: rgb(255, 255, 255); --darkreader-inline-fill: #e8e6e3;" points="16.173,452.48 33.24,452.48 33.24,290.347 16.173,290.347 " data-darkreader-inline-fill=""></polygon> <polygon style="fill: rgb(253, 204, 0); --darkreader-inline-fill: #ffd31b;" points="33.24,290.347 58.84,290.347 58.84,222.08 33.24,222.08 " data-darkreader-inline-fill=""></polygon> <polygon style="fill: rgb(255, 255, 255); --darkreader-inline-fill: #e8e6e3;" points="7.64,290.347 33.24,290.347 33.24,222.08 7.64,222.08 " data-darkreader-inline-fill=""></polygon> <g> <polygon style="fill: rgb(253, 204, 0); --darkreader-inline-fill: #ffd31b;" points="58.84,273.28 144.173,273.28 144.173,239.147 58.84,239.147 " data-darkreader-inline-fill=""></polygon> <polygon style="fill: rgb(253, 204, 0); --darkreader-inline-fill: #ffd31b;" points="144.173,290.347 178.307,290.347 178.307,222.08 144.173,222.08 " data-darkreader-inline-fill=""></polygon> </g> <polygon style="fill: rgb(255, 168, 0); --darkreader-inline-fill: #ffb11a;" points="263.64,290.347 280.707,290.347 280.707,222.08 263.64,222.08 " data-darkreader-inline-fill=""></polygon> <polygon style="fill: rgb(253, 204, 0); --darkreader-inline-fill: #ffd31b;" points="246.573,290.347 263.64,290.347 263.64,222.08 246.573,222.08 " data-darkreader-inline-fill=""></polygon> <polygon style="fill: rgb(255, 168, 0); --darkreader-inline-fill: #ffb11a;" points="152.707,187.947 272.173,187.947 272.173,136.747 152.707,136.747 " data-darkreader-inline-fill=""></polygon> <polygon style="fill: rgb(255, 225, 0); --darkreader-inline-fill: #ffe41a;" points="152.707,187.947 246.573,187.947 246.573,136.747 152.707,136.747 " data-darkreader-inline-fill=""></polygon> <path style="fill: rgb(255, 168, 0); --darkreader-inline-fill: #ffb11a;" d="M239.747,92.373c-4.267,4.267-0.853,10.24,4.267,10.24h36.693c11.093,0,22.187,5.12,30.72,12.8 L441.133,245.12c2.56,2.56,6.827,2.56,9.387,0l46.933-46.933c5.973-5.973,5.973-16.213,0-22.187L367.747,46.293L348.973,27.52 l-17.067-17.067c-2.56-2.56-7.68-2.56-10.24,0L239.747,92.373z" data-darkreader-inline-fill=""></path> <path style="fill: rgb(255, 225, 0); --darkreader-inline-fill: #ffe41a;" d="M235.48,95.787c-4.267,4.267-0.853,10.24,4.267,10.24h35.84c11.093,0,22.187,5.12,30.72,12.8 l127.147,128c2.56,2.56,6.827,2.56,9.387,0l38.4-31.573c5.973-5.973,5.973-16.213,0-22.187L350.68,63.36l-18.773-18.773 L314.84,27.52c-2.56-2.56-7.68-2.56-10.24,0L235.48,95.787z" data-darkreader-inline-fill=""></path> <path style="fill: rgb(61, 185, 249); --darkreader-inline-fill: #46bcf9;" d="M441.133,245.973c2.56,2.56,6.827,2.56,9.387,0l46.933-46.933c5.973-5.973,5.973-16.213,0-22.187 l-30.72-31.573h-125.44L441.133,245.973z" data-darkreader-inline-fill=""></path> <path style="fill: rgb(99, 211, 253); --darkreader-inline-fill: #5fd2fd;" d="M442.84,247.68c2.56,2.56,6.827,2.56,9.387,0l28.16-31.573c5.973-5.973,5.973-16.213,0-22.187 l-46.08-48.64H340.44L442.84,247.68z" data-darkreader-inline-fill=""></path> <path d="M272.173,196.48H152.707c-5.12,0-8.533-3.413-8.533-8.533v-51.2c0-5.12,3.413-8.533,8.533-8.533h119.467 c5.12,0,8.533,3.413,8.533,8.533v51.2C280.707,193.067,277.293,196.48,272.173,196.48z M161.24,179.413h102.4V145.28h-102.4 V179.413z"></path> <path d="M212.44,426.88c-28.16,0-51.2-23.04-51.2-51.2v-42.667c0-5.12,3.413-8.533,8.533-8.533h85.333 c5.12,0,8.533,3.413,8.533,8.533v42.667C263.64,403.84,240.6,426.88,212.44,426.88z M178.307,341.547v34.133 c0,18.773,15.36,34.133,34.133,34.133s34.133-15.36,34.133-34.133v-34.133H178.307z"></path> <path d="M58.84,298.88H7.64c-5.12,0-8.533-3.413-8.533-8.533V222.08c0-5.12,3.413-8.533,8.533-8.533h51.2 c5.12,0,8.533,3.413,8.533,8.533v68.267C67.373,295.467,63.96,298.88,58.84,298.88z M16.173,281.813h34.133v-51.2H16.173V281.813z"></path> <path d="M50.307,230.613H16.173c-5.12,0-8.533-3.413-8.533-8.533v-34.133c0-5.12,3.413-8.533,8.533-8.533h34.133 c5.12,0,8.533,3.413,8.533,8.533v34.133C58.84,227.2,55.427,230.613,50.307,230.613z M24.707,213.547h17.067V196.48H24.707V213.547 z"></path> <path d="M50.307,461.013H16.173c-5.12,0-8.533-3.413-8.533-8.533V290.347c0-5.12,3.413-8.533,8.533-8.533h34.133 c5.12,0,8.533,3.413,8.533,8.533V452.48C58.84,457.6,55.427,461.013,50.307,461.013z M24.707,443.947h17.067V298.88H24.707V443.947 z"></path> <path d="M144.173,281.813H58.84c-5.12,0-8.533-3.413-8.533-8.533v-34.133c0-5.12,3.413-8.533,8.533-8.533h85.333 c5.12,0,8.533,3.413,8.533,8.533v34.133C152.707,278.4,149.293,281.813,144.173,281.813z M67.373,264.747h68.267V247.68H67.373 V264.747z"></path> <path d="M178.307,298.88h-34.133c-5.12,0-8.533-3.413-8.533-8.533V222.08c0-5.12,3.413-8.533,8.533-8.533h34.133 c5.12,0,8.533,3.413,8.533,8.533v68.267C186.84,295.467,183.427,298.88,178.307,298.88z M152.707,281.813h17.067v-51.2h-17.067 V281.813z"></path> <path d="M280.707,298.88h-34.133c-5.12,0-8.533-3.413-8.533-8.533V222.08c0-5.12,3.413-8.533,8.533-8.533h34.133 c5.12,0,8.533,3.413,8.533,8.533v68.267C289.24,295.467,285.827,298.88,280.707,298.88z M255.107,281.813h17.067v-51.2h-17.067 V281.813z"></path> <path d="M502.573,512.213H306.307c-2.56,0-4.267-0.853-5.973-2.56l-14.507-14.507H232.92l-14.507,14.507 c-1.707,1.707-3.413,2.56-5.973,2.56H7.64c-5.12,0-8.533-3.413-8.533-8.533v-51.2c0-5.12,3.413-8.533,8.533-8.533h494.933 c5.12,0,8.533,3.413,8.533,8.533v51.2C511.107,508.8,507.693,512.213,502.573,512.213z M309.72,495.147h184.32v-34.133H16.173 v34.133h192.853l14.507-14.507c1.707-1.707,3.413-2.56,5.973-2.56h59.733c2.56,0,4.267,0.853,5.973,2.56L309.72,495.147z"></path> <path d="M212.44,426.88c-28.16,0-51.2-23.04-51.2-51.2v-85.333c0-5.12,3.413-8.533,8.533-8.533v-51.2 c-5.12,0-8.533-3.413-8.533-8.533v-34.133c0-5.12,3.413-8.533,8.533-8.533h85.333c5.12,0,8.533,3.413,8.533,8.533v34.133 c0,5.12-3.413,8.533-8.533,8.533v51.2c5.12,0,8.533,3.413,8.533,8.533v85.333C263.64,403.84,240.6,426.88,212.44,426.88z M178.307,298.88v76.8c0,18.773,15.36,34.133,34.133,34.133s34.133-15.36,34.133-34.133v-76.8c-5.12,0-8.533-3.413-8.533-8.533 V222.08c0-5.12,3.413-8.533,8.533-8.533V196.48h-68.267v17.067c5.12,0,8.533,3.413,8.533,8.533v68.267 C186.84,295.467,183.427,298.88,178.307,298.88z"></path> <path d="M446.253,256.213L446.253,256.213c-4.267,0-7.68-1.707-11.093-4.267l-129.707-130.56 c-6.827-5.973-15.36-10.24-24.747-10.24h-35.84c-5.973,0-11.093-3.413-13.653-9.387c-2.56-5.12-0.853-11.947,3.413-16.213 l81.92-81.067c5.973-5.973,16.213-5.973,22.187,0l164.693,166.4c4.267,4.267,6.827,11.093,6.827,17.067 c0,6.827-2.56,12.8-6.827,17.067l-46.933,46.933C453.933,254.507,450.52,256.213,446.253,256.213z M249.987,94.08h30.72 c13.653,0,27.307,5.973,36.693,15.36l128.853,128.853l45.227-45.227c1.707-1.707,1.707-3.413,1.707-5.12 c0-1.707-0.853-3.413-1.707-5.12L326.787,17.28L249.987,94.08z M246.573,98.347L246.573,98.347L246.573,98.347L246.573,98.347z M239.747,92.373L239.747,92.373L239.747,92.373z"></path> <path d="M446.253,256.213c-4.267,0-7.68-1.707-11.093-4.267l0,0l-99.84-100.693c-2.56-2.56-3.413-5.973-1.707-9.387 s4.267-5.12,7.68-5.12h125.44c2.56,0,4.267,0.853,5.973,2.56l31.573,31.573c4.267,4.267,6.827,11.093,6.827,17.067 c0,5.973-2.56,12.8-6.827,17.067l-46.933,46.933C453.933,254.507,450.52,256.213,446.253,256.213z M447.107,240L447.107,240 L447.107,240z M361.773,153.813l84.48,84.48l45.227-45.227c1.707-1.707,1.707-3.413,1.707-5.12c0-1.707-0.853-3.413-1.707-5.12 l-28.16-29.013H361.773z"></path> </g> </g></svg>